<mxfile modified="2020-02-27T11:51:33.433Z" host="www.draw.io" agent="Mozilla/5.0 (Windows NT 10.0; Win64; x64) AppleWebKit/537.36 (KHTML, like Gecko) Chrome/80.0.3987.122 Safari/537.36" etag="Lq5nf6DymWLs1KGRS7V_" version="12.7.8" type="github" pages="2">
  <diagram name="Bottomline- As Is" id="0WiYs2uDSN9r_ez0LBsD">
    <mxGraphModel dx="1992" dy="1671" grid="1" gridSize="10" guides="1" tooltips="1" connect="1" arrows="1" fold="1" page="1" pageScale="1" pageWidth="827" pageHeight="1169" math="0" shadow="0">
      <root>
        <mxCell id="5QDhFZ3FKF-D9TqPaspZ-0" />
        <mxCell id="5QDhFZ3FKF-D9TqPaspZ-1" parent="5QDhFZ3FKF-D9TqPaspZ-0" />
        <mxCell id="5QDhFZ3FKF-D9TqPaspZ-2" value="&lt;font style=&quot;font-size: 16px&quot;&gt;Nobia Network&lt;/font&gt;" style="rounded=1;whiteSpace=wrap;html=1;dashed=1;verticalAlign=top;align=left;" parent="5QDhFZ3FKF-D9TqPaspZ-1" vertex="1">
          <mxGeometry x="-29" y="290" width="779" height="580" as="geometry" />
        </mxCell>
        <mxCell id="5QDhFZ3FKF-D9TqPaspZ-7" value="SAP ECC" style="rounded=1;whiteSpace=wrap;html=1;verticalAlign=top;" parent="5QDhFZ3FKF-D9TqPaspZ-1" vertex="1">
          <mxGeometry x="-20" y="664" width="170" height="90" as="geometry" />
        </mxCell>
        <mxCell id="zmvdrTiBWX6lppgmcVrx-3" value="SAP S/4 Hana (UK Supply Chain Instance)" style="rounded=1;whiteSpace=wrap;html=1;verticalAlign=top;" parent="5QDhFZ3FKF-D9TqPaspZ-1" vertex="1">
          <mxGeometry x="200" y="658" width="180" height="200" as="geometry" />
        </mxCell>
        <mxCell id="5QDhFZ3FKF-D9TqPaspZ-3" value="Bottomline Server" style="rounded=1;whiteSpace=wrap;html=1;verticalAlign=top;" parent="5QDhFZ3FKF-D9TqPaspZ-1" vertex="1">
          <mxGeometry x="60" y="320" width="510" height="250" as="geometry" />
        </mxCell>
        <mxCell id="zmvdrTiBWX6lppgmcVrx-23" style="edgeStyle=orthogonalEdgeStyle;rounded=0;orthogonalLoop=1;jettySize=auto;html=1;exitX=0.55;exitY=0.95;exitDx=0;exitDy=0;exitPerimeter=0;strokeColor=#000000;fontColor=none;noLabel=1;" parent="5QDhFZ3FKF-D9TqPaspZ-1" source="5QDhFZ3FKF-D9TqPaspZ-4" target="5QDhFZ3FKF-D9TqPaspZ-26" edge="1">
          <mxGeometry relative="1" as="geometry" />
        </mxCell>
        <mxCell id="5QDhFZ3FKF-D9TqPaspZ-4" value="BACS" style="ellipse;shape=cloud;whiteSpace=wrap;html=1;direction=west;" parent="5QDhFZ3FKF-D9TqPaspZ-1" vertex="1">
          <mxGeometry x="274" y="120" width="280" height="170" as="geometry" />
        </mxCell>
        <mxCell id="rlvEACRnKUC5h2nOtBYd-4" style="edgeStyle=orthogonalEdgeStyle;rounded=0;orthogonalLoop=1;jettySize=auto;html=1;exitX=0.5;exitY=0;exitDx=0;exitDy=0;entryX=0.625;entryY=0.2;entryDx=0;entryDy=0;entryPerimeter=0;" parent="5QDhFZ3FKF-D9TqPaspZ-1" source="5QDhFZ3FKF-D9TqPaspZ-9" target="5QDhFZ3FKF-D9TqPaspZ-4" edge="1">
          <mxGeometry relative="1" as="geometry" />
        </mxCell>
        <mxCell id="5QDhFZ3FKF-D9TqPaspZ-9" value="Paybase" style="rounded=1;whiteSpace=wrap;html=1;verticalAlign=top;" parent="5QDhFZ3FKF-D9TqPaspZ-1" vertex="1">
          <mxGeometry x="315" y="363" width="128" height="57" as="geometry" />
        </mxCell>
        <mxCell id="5QDhFZ3FKF-D9TqPaspZ-11" style="edgeStyle=orthogonalEdgeStyle;rounded=0;orthogonalLoop=1;jettySize=auto;html=1;exitX=0;exitY=0.5;exitDx=0;exitDy=0;entryX=1;entryY=0.5;entryDx=0;entryDy=0;fillColor=#6a00ff;strokeColor=#3700CC;" parent="5QDhFZ3FKF-D9TqPaspZ-1" source="5QDhFZ3FKF-D9TqPaspZ-13" target="5QDhFZ3FKF-D9TqPaspZ-14" edge="1">
          <mxGeometry relative="1" as="geometry" />
        </mxCell>
        <mxCell id="5QDhFZ3FKF-D9TqPaspZ-12" value="Remittance" style="text;html=1;resizable=0;points=[];align=center;verticalAlign=middle;labelBackgroundColor=#ffffff;" parent="5QDhFZ3FKF-D9TqPaspZ-11" vertex="1" connectable="0">
          <mxGeometry x="0.2016" y="2" relative="1" as="geometry">
            <mxPoint as="offset" />
          </mxGeometry>
        </mxCell>
        <mxCell id="5QDhFZ3FKF-D9TqPaspZ-13" value="Transform" style="rounded=1;whiteSpace=wrap;html=1;verticalAlign=top;" parent="5QDhFZ3FKF-D9TqPaspZ-1" vertex="1">
          <mxGeometry x="85.5" y="369" width="81" height="60" as="geometry" />
        </mxCell>
        <mxCell id="5QDhFZ3FKF-D9TqPaspZ-14" value="" style="shape=image;html=1;verticalAlign=top;verticalLabelPosition=bottom;labelBackgroundColor=#ffffff;imageAspect=0;aspect=fixed;image=https://cdn2.iconfinder.com/data/icons/people-80/96/Picture1-128.png" parent="5QDhFZ3FKF-D9TqPaspZ-1" vertex="1">
          <mxGeometry x="-230" y="362" width="74" height="74" as="geometry" />
        </mxCell>
        <mxCell id="5QDhFZ3FKF-D9TqPaspZ-15" value="Magnet Suppliers" style="text;html=1;resizable=0;points=[];autosize=1;align=left;verticalAlign=top;spacingTop=-4;" parent="5QDhFZ3FKF-D9TqPaspZ-1" vertex="1">
          <mxGeometry x="-243" y="436" width="110" height="20" as="geometry" />
        </mxCell>
        <mxCell id="5QDhFZ3FKF-D9TqPaspZ-16" value="Oracle EBS" style="rounded=1;whiteSpace=wrap;html=1;verticalAlign=top;" parent="5QDhFZ3FKF-D9TqPaspZ-1" vertex="1">
          <mxGeometry x="444" y="670" width="296" height="80" as="geometry" />
        </mxCell>
        <mxCell id="5QDhFZ3FKF-D9TqPaspZ-26" value="" style="shape=image;html=1;verticalAlign=top;verticalLabelPosition=bottom;labelBackgroundColor=#ffffff;imageAspect=0;aspect=fixed;image=https://cdn0.iconfinder.com/data/icons/business-and-finance-86/512/business_finance_money-32-2-128.png" parent="5QDhFZ3FKF-D9TqPaspZ-1" vertex="1">
          <mxGeometry x="349" y="-37" width="101" height="101" as="geometry" />
        </mxCell>
        <mxCell id="5QDhFZ3FKF-D9TqPaspZ-27" value="Banks" style="text;html=1;resizable=0;points=[];autosize=1;align=left;verticalAlign=top;spacingTop=-4;" parent="5QDhFZ3FKF-D9TqPaspZ-1" vertex="1">
          <mxGeometry x="420" y="54" width="50" height="10" as="geometry" />
        </mxCell>
        <mxCell id="DQQrZIf6pvGCHNPxsHqb-0" value="&lt;b&gt;&lt;font style=&quot;font-size: 18px&quot;&gt;1a&lt;/font&gt;&lt;/b&gt;" style="ellipse;whiteSpace=wrap;html=1;aspect=fixed;strokeColor=#FFFFFF;fillColor=#B3B3B3;fontSize=20;" parent="5QDhFZ3FKF-D9TqPaspZ-1" vertex="1">
          <mxGeometry x="-40" y="674" width="30" height="30" as="geometry" />
        </mxCell>
        <mxCell id="5QDhFZ3FKF-D9TqPaspZ-42" value="Payment&lt;br style=&quot;font-size: 12px;&quot;&gt;File" style="edgeStyle=orthogonalEdgeStyle;rounded=0;orthogonalLoop=1;jettySize=auto;html=1;exitX=0.5;exitY=0;exitDx=0;exitDy=0;fillColor=#e51400;strokeColor=#B20000;fontSize=12;entryX=0.5;entryY=1;entryDx=0;entryDy=0;" parent="5QDhFZ3FKF-D9TqPaspZ-1" source="DafEFwL84ATMl172Mt__-13" target="DafEFwL84ATMl172Mt__-3" edge="1">
          <mxGeometry relative="1" as="geometry">
            <mxPoint x="518" y="620" as="targetPoint" />
          </mxGeometry>
        </mxCell>
        <mxCell id="DafEFwL84ATMl172Mt__-11" style="edgeStyle=orthogonalEdgeStyle;rounded=0;orthogonalLoop=1;jettySize=auto;html=1;exitX=0.5;exitY=1;exitDx=0;exitDy=0;strokeColor=#3700CC;" parent="5QDhFZ3FKF-D9TqPaspZ-1" source="zmvdrTiBWX6lppgmcVrx-5" target="DafEFwL84ATMl172Mt__-10" edge="1">
          <mxGeometry relative="1" as="geometry" />
        </mxCell>
        <mxCell id="3cHPP-RWXiZP0hmBgrUZ-5" value="Cheque&amp;nbsp;&lt;br&gt;Payments" style="text;html=1;align=center;verticalAlign=middle;resizable=0;points=[];labelBackgroundColor=#ffffff;" parent="DafEFwL84ATMl172Mt__-11" vertex="1" connectable="0">
          <mxGeometry x="-0.1539" y="-1" relative="1" as="geometry">
            <mxPoint as="offset" />
          </mxGeometry>
        </mxCell>
        <mxCell id="zmvdrTiBWX6lppgmcVrx-5" value="zPayments" style="rounded=1;whiteSpace=wrap;html=1;verticalAlign=top;" parent="5QDhFZ3FKF-D9TqPaspZ-1" vertex="1">
          <mxGeometry x="-10" y="693.75" width="150" height="40" as="geometry" />
        </mxCell>
        <mxCell id="zmvdrTiBWX6lppgmcVrx-14" value="" style="shape=image;html=1;verticalAlign=top;verticalLabelPosition=bottom;labelBackgroundColor=#ffffff;imageAspect=0;aspect=fixed;image=https://cdn2.iconfinder.com/data/icons/people-80/96/Picture1-128.png" parent="5QDhFZ3FKF-D9TqPaspZ-1" vertex="1">
          <mxGeometry x="253" y="970" width="74" height="74" as="geometry" />
        </mxCell>
        <mxCell id="zmvdrTiBWX6lppgmcVrx-17" value="UK Supply Chain Suppliers" style="text;html=1;resizable=0;points=[];autosize=1;align=left;verticalAlign=top;spacingTop=-4;" parent="5QDhFZ3FKF-D9TqPaspZ-1" vertex="1">
          <mxGeometry x="210" y="1044" width="160" height="10" as="geometry" />
        </mxCell>
        <mxCell id="zmvdrTiBWX6lppgmcVrx-18" value="" style="shape=image;html=1;verticalAlign=top;verticalLabelPosition=bottom;labelBackgroundColor=#ffffff;imageAspect=0;aspect=fixed;image=https://cdn2.iconfinder.com/data/icons/people-80/96/Picture1-128.png" parent="5QDhFZ3FKF-D9TqPaspZ-1" vertex="1">
          <mxGeometry x="817" y="658" width="74" height="74" as="geometry" />
        </mxCell>
        <mxCell id="zmvdrTiBWX6lppgmcVrx-19" value="Gower Suppliers" style="text;html=1;resizable=0;points=[];autosize=1;align=left;verticalAlign=top;spacingTop=-4;" parent="5QDhFZ3FKF-D9TqPaspZ-1" vertex="1">
          <mxGeometry x="817" y="735" width="100" height="10" as="geometry" />
        </mxCell>
        <mxCell id="ScP-DXtnd7c2w665mB3K-0" value="" style="edgeStyle=orthogonalEdgeStyle;rounded=0;orthogonalLoop=1;jettySize=auto;html=1;fillColor=#e51400;strokeColor=#B20000;" parent="5QDhFZ3FKF-D9TqPaspZ-1" edge="1">
          <mxGeometry x="-1" y="-34" relative="1" as="geometry">
            <mxPoint x="630" y="907" as="sourcePoint" />
            <mxPoint x="666" y="907" as="targetPoint" />
            <mxPoint as="offset" />
          </mxGeometry>
        </mxCell>
        <mxCell id="ScP-DXtnd7c2w665mB3K-3" value="" style="edgeStyle=orthogonalEdgeStyle;rounded=0;orthogonalLoop=1;jettySize=auto;html=1;fillColor=#e51400;strokeColor=#3700CC;" parent="5QDhFZ3FKF-D9TqPaspZ-1" edge="1">
          <mxGeometry x="-1" y="-34" relative="1" as="geometry">
            <mxPoint x="631" y="931" as="sourcePoint" />
            <mxPoint x="667" y="931" as="targetPoint" />
            <mxPoint as="offset" />
          </mxGeometry>
        </mxCell>
        <mxCell id="ScP-DXtnd7c2w665mB3K-4" value="Gower Transactions" style="text;html=1;resizable=0;points=[];autosize=1;align=left;verticalAlign=top;spacingTop=-4;" parent="5QDhFZ3FKF-D9TqPaspZ-1" vertex="1">
          <mxGeometry x="670" y="898" width="120" height="10" as="geometry" />
        </mxCell>
        <mxCell id="ScP-DXtnd7c2w665mB3K-5" value="Magnet Transactions" style="text;html=1;resizable=0;points=[];autosize=1;align=left;verticalAlign=top;spacingTop=-4;" parent="5QDhFZ3FKF-D9TqPaspZ-1" vertex="1">
          <mxGeometry x="670" y="923" width="130" height="10" as="geometry" />
        </mxCell>
        <mxCell id="zmvdrTiBWX6lppgmcVrx-6" value="" style="edgeStyle=orthogonalEdgeStyle;rounded=0;orthogonalLoop=1;jettySize=auto;html=1;fillColor=#e51400;strokeColor=#66CC00;" parent="5QDhFZ3FKF-D9TqPaspZ-1" edge="1">
          <mxGeometry x="-1" y="-34" relative="1" as="geometry">
            <mxPoint x="629" y="961" as="sourcePoint" />
            <mxPoint x="665" y="961" as="targetPoint" />
            <mxPoint as="offset" />
          </mxGeometry>
        </mxCell>
        <mxCell id="zmvdrTiBWX6lppgmcVrx-7" value="UK SC Transactions" style="text;html=1;resizable=0;points=[];autosize=1;align=left;verticalAlign=top;spacingTop=-4;" parent="5QDhFZ3FKF-D9TqPaspZ-1" vertex="1">
          <mxGeometry x="670" y="953" width="120" height="10" as="geometry" />
        </mxCell>
        <mxCell id="DafEFwL84ATMl172Mt__-1" value="Fileshare" style="rounded=1;whiteSpace=wrap;html=1;verticalAlign=top;" parent="5QDhFZ3FKF-D9TqPaspZ-1" vertex="1">
          <mxGeometry x="80" y="460" width="470" height="100" as="geometry" />
        </mxCell>
        <mxCell id="6po6rHESCgqyQbynay51-14" style="edgeStyle=orthogonalEdgeStyle;rounded=0;orthogonalLoop=1;jettySize=auto;html=1;exitX=0.5;exitY=0;exitDx=0;exitDy=0;fontSize=11;strokeColor=#3700CC;" parent="5QDhFZ3FKF-D9TqPaspZ-1" source="DafEFwL84ATMl172Mt__-2" target="5QDhFZ3FKF-D9TqPaspZ-13" edge="1">
          <mxGeometry relative="1" as="geometry" />
        </mxCell>
        <mxCell id="DafEFwL84ATMl172Mt__-2" value="" style="shape=image;html=1;verticalAlign=top;verticalLabelPosition=bottom;labelBackgroundColor=#ffffff;imageAspect=0;aspect=fixed;image=https://cdn0.iconfinder.com/data/icons/simple-darkcon-1/86/shit-128.png" parent="5QDhFZ3FKF-D9TqPaspZ-1" vertex="1">
          <mxGeometry x="107.00086956521739" y="495" width="38" height="38" as="geometry" />
        </mxCell>
        <mxCell id="DafEFwL84ATMl172Mt__-3" value="" style="shape=image;html=1;verticalAlign=top;verticalLabelPosition=bottom;labelBackgroundColor=#ffffff;imageAspect=0;aspect=fixed;image=https://cdn0.iconfinder.com/data/icons/simple-darkcon-1/86/shit-128.png" parent="5QDhFZ3FKF-D9TqPaspZ-1" vertex="1">
          <mxGeometry x="501.00304347826085" y="510" width="38" height="38" as="geometry" />
        </mxCell>
        <mxCell id="6po6rHESCgqyQbynay51-12" style="edgeStyle=orthogonalEdgeStyle;rounded=0;orthogonalLoop=1;jettySize=auto;html=1;exitX=0.5;exitY=0;exitDx=0;exitDy=0;fontSize=11;strokeColor=#66CC00;" parent="5QDhFZ3FKF-D9TqPaspZ-1" source="DafEFwL84ATMl172Mt__-5" target="5QDhFZ3FKF-D9TqPaspZ-9" edge="1">
          <mxGeometry relative="1" as="geometry">
            <Array as="points">
              <mxPoint x="299" y="450" />
              <mxPoint x="379" y="450" />
            </Array>
          </mxGeometry>
        </mxCell>
        <mxCell id="DafEFwL84ATMl172Mt__-5" value="" style="shape=image;html=1;verticalAlign=top;verticalLabelPosition=bottom;labelBackgroundColor=#ffffff;imageAspect=0;aspect=fixed;image=https://cdn0.iconfinder.com/data/icons/simple-darkcon-1/86/shit-128.png" parent="5QDhFZ3FKF-D9TqPaspZ-1" vertex="1">
          <mxGeometry x="273.0008695652174" y="495" width="38" height="38" as="geometry" />
        </mxCell>
        <mxCell id="5QDhFZ3FKF-D9TqPaspZ-43" value="" style="edgeStyle=orthogonalEdgeStyle;rounded=0;orthogonalLoop=1;jettySize=auto;html=1;exitX=0.5;exitY=0;exitDx=0;exitDy=0;fillColor=#6a00ff;strokeColor=#3700CC;entryX=0.5;entryY=1;entryDx=0;entryDy=0;" parent="5QDhFZ3FKF-D9TqPaspZ-1" source="zmvdrTiBWX6lppgmcVrx-5" target="DafEFwL84ATMl172Mt__-6" edge="1">
          <mxGeometry relative="1" as="geometry">
            <mxPoint x="293" y="549" as="targetPoint" />
            <Array as="points">
              <mxPoint x="65" y="613" />
              <mxPoint x="201" y="613" />
            </Array>
          </mxGeometry>
        </mxCell>
        <mxCell id="3cHPP-RWXiZP0hmBgrUZ-1" value="Payment &lt;br&gt;File" style="text;html=1;align=center;verticalAlign=middle;resizable=0;points=[];labelBackgroundColor=#ffffff;" parent="5QDhFZ3FKF-D9TqPaspZ-43" vertex="1" connectable="0">
          <mxGeometry x="0.1676" relative="1" as="geometry">
            <mxPoint x="33.75" y="-30" as="offset" />
          </mxGeometry>
        </mxCell>
        <mxCell id="6po6rHESCgqyQbynay51-15" style="edgeStyle=orthogonalEdgeStyle;rounded=0;orthogonalLoop=1;jettySize=auto;html=1;exitX=0.5;exitY=0;exitDx=0;exitDy=0;entryX=0.25;entryY=1;entryDx=0;entryDy=0;fontSize=11;strokeColor=#3700CC;" parent="5QDhFZ3FKF-D9TqPaspZ-1" source="DafEFwL84ATMl172Mt__-6" target="5QDhFZ3FKF-D9TqPaspZ-9" edge="1">
          <mxGeometry relative="1" as="geometry">
            <Array as="points">
              <mxPoint x="201" y="440" />
              <mxPoint x="347" y="440" />
            </Array>
          </mxGeometry>
        </mxCell>
        <mxCell id="DafEFwL84ATMl172Mt__-6" value="" style="shape=image;html=1;verticalAlign=top;verticalLabelPosition=bottom;labelBackgroundColor=#ffffff;imageAspect=0;aspect=fixed;image=https://cdn0.iconfinder.com/data/icons/simple-darkcon-1/86/shit-128.png" parent="5QDhFZ3FKF-D9TqPaspZ-1" vertex="1">
          <mxGeometry x="182.00086956521739" y="495" width="38" height="38" as="geometry" />
        </mxCell>
        <mxCell id="DafEFwL84ATMl172Mt__-8" value="" style="edgeStyle=orthogonalEdgeStyle;rounded=0;orthogonalLoop=1;jettySize=auto;html=1;exitX=0.25;exitY=0;exitDx=0;exitDy=0;fillColor=#6a00ff;strokeColor=#3700CC;" parent="5QDhFZ3FKF-D9TqPaspZ-1" source="zmvdrTiBWX6lppgmcVrx-5" target="DafEFwL84ATMl172Mt__-2" edge="1">
          <mxGeometry relative="1" as="geometry">
            <mxPoint x="302.5" y="712.5" as="sourcePoint" />
            <mxPoint x="303" y="559" as="targetPoint" />
            <Array as="points">
              <mxPoint x="65" y="694" />
              <mxPoint x="65" y="613" />
              <mxPoint x="126" y="613" />
            </Array>
          </mxGeometry>
        </mxCell>
        <mxCell id="3cHPP-RWXiZP0hmBgrUZ-2" value="Remittance&lt;br&gt;File" style="text;html=1;align=center;verticalAlign=middle;resizable=0;points=[];labelBackgroundColor=#ffffff;" parent="DafEFwL84ATMl172Mt__-8" vertex="1" connectable="0">
          <mxGeometry x="0.4019" y="1" relative="1" as="geometry">
            <mxPoint x="0.75" y="-27" as="offset" />
          </mxGeometry>
        </mxCell>
        <mxCell id="DafEFwL84ATMl172Mt__-10" value="" style="verticalLabelPosition=bottom;aspect=fixed;html=1;verticalAlign=top;strokeColor=none;align=center;outlineConnect=0;shape=mxgraph.citrix.printer;" parent="5QDhFZ3FKF-D9TqPaspZ-1" vertex="1">
          <mxGeometry x="32" y="963" width="70" height="70" as="geometry" />
        </mxCell>
        <mxCell id="DafEFwL84ATMl172Mt__-13" value="Format Payments (XXGFLBACS)" style="rounded=1;whiteSpace=wrap;html=1;verticalAlign=top;" parent="5QDhFZ3FKF-D9TqPaspZ-1" vertex="1">
          <mxGeometry x="463" y="695" width="110" height="40" as="geometry" />
        </mxCell>
        <mxCell id="5QDhFZ3FKF-D9TqPaspZ-31" value="" style="edgeStyle=orthogonalEdgeStyle;rounded=0;orthogonalLoop=1;jettySize=auto;html=1;exitX=0.5;exitY=0;exitDx=0;exitDy=0;fillColor=#e51400;strokeColor=#B20000;" parent="5QDhFZ3FKF-D9TqPaspZ-1" target="5QDhFZ3FKF-D9TqPaspZ-9" edge="1">
          <mxGeometry relative="1" as="geometry">
            <Array as="points">
              <mxPoint x="518" y="450" />
              <mxPoint x="402" y="450" />
            </Array>
            <mxPoint x="518" y="510" as="sourcePoint" />
          </mxGeometry>
        </mxCell>
        <mxCell id="DafEFwL84ATMl172Mt__-19" value="Remittance Advice&lt;br&gt;(GFL_SREM1_NGT)" style="rounded=1;whiteSpace=wrap;html=1;verticalAlign=top;" parent="5QDhFZ3FKF-D9TqPaspZ-1" vertex="1">
          <mxGeometry x="596.52" y="695" width="126" height="37.5" as="geometry" />
        </mxCell>
        <mxCell id="zmvdrTiBWX6lppgmcVrx-20" style="edgeStyle=orthogonalEdgeStyle;rounded=0;orthogonalLoop=1;jettySize=auto;html=1;exitX=1;exitY=0.5;exitDx=0;exitDy=0;entryX=0;entryY=0.75;entryDx=0;entryDy=0;strokeColor=#B20000;" parent="5QDhFZ3FKF-D9TqPaspZ-1" source="DafEFwL84ATMl172Mt__-19" target="zmvdrTiBWX6lppgmcVrx-18" edge="1">
          <mxGeometry relative="1" as="geometry" />
        </mxCell>
        <mxCell id="E16WqzM08AcB0rvfuX4--0" value="Remittance" style="text;html=1;align=center;verticalAlign=middle;resizable=0;points=[];labelBackgroundColor=#ffffff;" parent="zmvdrTiBWX6lppgmcVrx-20" vertex="1" connectable="0">
          <mxGeometry x="-0.2925" y="-4" relative="1" as="geometry">
            <mxPoint x="4.5" y="4.579999999999998" as="offset" />
          </mxGeometry>
        </mxCell>
        <mxCell id="3cHPP-RWXiZP0hmBgrUZ-6" value="&lt;b&gt;&lt;font style=&quot;font-size: 18px&quot;&gt;1b&lt;/font&gt;&lt;/b&gt;" style="ellipse;whiteSpace=wrap;html=1;aspect=fixed;strokeColor=#FFFFFF;fillColor=#B3B3B3;fontSize=20;" parent="5QDhFZ3FKF-D9TqPaspZ-1" vertex="1">
          <mxGeometry x="210" y="585" width="30" height="30" as="geometry" />
        </mxCell>
        <mxCell id="3cHPP-RWXiZP0hmBgrUZ-7" value="&lt;b&gt;&lt;font style=&quot;font-size: 18px&quot;&gt;1d&lt;/font&gt;&lt;/b&gt;" style="ellipse;whiteSpace=wrap;html=1;aspect=fixed;strokeColor=#FFFFFF;fillColor=#B3B3B3;fontSize=20;" parent="5QDhFZ3FKF-D9TqPaspZ-1" vertex="1">
          <mxGeometry x="72" y="580" width="30" height="30" as="geometry" />
        </mxCell>
        <mxCell id="3cHPP-RWXiZP0hmBgrUZ-10" value="" style="edgeStyle=orthogonalEdgeStyle;rounded=0;orthogonalLoop=1;jettySize=auto;html=1;fillColor=#e51400;strokeColor=#66CC00;exitX=0.5;exitY=1;exitDx=0;exitDy=0;" parent="5QDhFZ3FKF-D9TqPaspZ-1" source="3cHPP-RWXiZP0hmBgrUZ-12" target="zmvdrTiBWX6lppgmcVrx-14" edge="1">
          <mxGeometry x="-1" y="-34" relative="1" as="geometry">
            <mxPoint x="100" y="680" as="sourcePoint" />
            <mxPoint x="140" y="558" as="targetPoint" />
            <mxPoint as="offset" />
          </mxGeometry>
        </mxCell>
        <mxCell id="b-vuMiENwKfQlOrTJs6d-2" value="Remittance" style="text;html=1;align=center;verticalAlign=middle;resizable=0;points=[];labelBackgroundColor=#ffffff;" parent="3cHPP-RWXiZP0hmBgrUZ-10" vertex="1" connectable="0">
          <mxGeometry x="0.1421" y="2" relative="1" as="geometry">
            <mxPoint as="offset" />
          </mxGeometry>
        </mxCell>
        <mxCell id="3cHPP-RWXiZP0hmBgrUZ-19" value="&lt;b&gt;&lt;font style=&quot;font-size: 18px&quot;&gt;2d&lt;/font&gt;&lt;/b&gt;" style="ellipse;whiteSpace=wrap;html=1;aspect=fixed;strokeColor=#FFFFFF;fillColor=#B3B3B3;fontSize=20;" parent="5QDhFZ3FKF-D9TqPaspZ-1" vertex="1">
          <mxGeometry x="302" y="868" width="30" height="30" as="geometry" />
        </mxCell>
        <mxCell id="3cHPP-RWXiZP0hmBgrUZ-25" value="&lt;b&gt;&lt;font style=&quot;font-size: 18px&quot;&gt;3a&lt;/font&gt;&lt;/b&gt;" style="ellipse;whiteSpace=wrap;html=1;aspect=fixed;strokeColor=#FFFFFF;fillColor=#B3B3B3;fontSize=20;" parent="5QDhFZ3FKF-D9TqPaspZ-1" vertex="1">
          <mxGeometry x="440" y="674" width="30" height="30" as="geometry" />
        </mxCell>
        <mxCell id="3cHPP-RWXiZP0hmBgrUZ-26" value="&lt;b&gt;&lt;font style=&quot;font-size: 18px&quot;&gt;3b&lt;/font&gt;&lt;/b&gt;" style="ellipse;whiteSpace=wrap;html=1;aspect=fixed;strokeColor=#FFFFFF;fillColor=#B3B3B3;fontSize=20;" parent="5QDhFZ3FKF-D9TqPaspZ-1" vertex="1">
          <mxGeometry x="463" y="580" width="30" height="30" as="geometry" />
        </mxCell>
        <mxCell id="3cHPP-RWXiZP0hmBgrUZ-27" value="&lt;b&gt;&lt;font style=&quot;font-size: 18px&quot;&gt;3c&lt;/font&gt;&lt;/b&gt;" style="ellipse;whiteSpace=wrap;html=1;aspect=fixed;strokeColor=#FFFFFF;fillColor=#B3B3B3;fontSize=20;" parent="5QDhFZ3FKF-D9TqPaspZ-1" vertex="1">
          <mxGeometry x="400" y="384" width="30" height="30" as="geometry" />
        </mxCell>
        <mxCell id="3cHPP-RWXiZP0hmBgrUZ-28" value="&lt;b&gt;&lt;font style=&quot;font-size: 18px&quot;&gt;3d&lt;/font&gt;&lt;/b&gt;" style="ellipse;whiteSpace=wrap;html=1;aspect=fixed;strokeColor=#FFFFFF;fillColor=#B3B3B3;fontSize=20;" parent="5QDhFZ3FKF-D9TqPaspZ-1" vertex="1">
          <mxGeometry x="770" y="674" width="30" height="30" as="geometry" />
        </mxCell>
        <mxCell id="6po6rHESCgqyQbynay51-1" value="" style="group" parent="5QDhFZ3FKF-D9TqPaspZ-1" vertex="1" connectable="0">
          <mxGeometry x="220" y="696" width="146.5" height="154" as="geometry" />
        </mxCell>
        <mxCell id="t_JVnz8HQEceKz7ftaNM-1" value="&lt;font style=&quot;font-size: 11px;&quot;&gt;Aurora Payments Process&lt;/font&gt;" style="rounded=1;whiteSpace=wrap;html=1;dashed=1;verticalAlign=top;fontSize=11;" parent="6po6rHESCgqyQbynay51-1" vertex="1">
          <mxGeometry width="140" height="154" as="geometry" />
        </mxCell>
        <mxCell id="3cHPP-RWXiZP0hmBgrUZ-12" value="Custom SAP Script" style="rounded=1;whiteSpace=wrap;html=1;verticalAlign=top;" parent="6po6rHESCgqyQbynay51-1" vertex="1">
          <mxGeometry x="12.5" y="117" width="115" height="25" as="geometry" />
        </mxCell>
        <mxCell id="b-vuMiENwKfQlOrTJs6d-3" value="&lt;span style=&quot;font-family: &amp;#34;segoe ui&amp;#34; , sans-serif ; font-size: 10pt&quot;&gt;RFFOAVIS_FPAYM (Standard Payments)&lt;/span&gt;&lt;br&gt;&lt;div class=&quot;WordSection1&quot;&gt;&lt;br&gt;&lt;br&gt;&lt;/div&gt;" style="rounded=1;whiteSpace=wrap;html=1;verticalAlign=top;" parent="6po6rHESCgqyQbynay51-1" vertex="1">
          <mxGeometry x="9" y="67" width="125" height="40" as="geometry" />
        </mxCell>
        <mxCell id="b-vuMiENwKfQlOrTJs6d-5" value="&lt;font face=&quot;segoe ui, sans-serif&quot;&gt;&lt;span style=&quot;font-size: 13.3333px&quot;&gt;Custom Tree&lt;/span&gt;&lt;/font&gt;" style="rounded=1;whiteSpace=wrap;html=1;verticalAlign=top;" parent="6po6rHESCgqyQbynay51-1" vertex="1">
          <mxGeometry x="26.5" y="30" width="90" height="30" as="geometry" />
        </mxCell>
        <mxCell id="3cHPP-RWXiZP0hmBgrUZ-15" value="&lt;b&gt;&lt;font style=&quot;font-size: 18px&quot;&gt;2a&lt;/font&gt;&lt;/b&gt;" style="ellipse;whiteSpace=wrap;html=1;aspect=fixed;strokeColor=#FFFFFF;fillColor=#B3B3B3;fontSize=20;" parent="6po6rHESCgqyQbynay51-1" vertex="1">
          <mxGeometry x="116.5" y="60" width="30" height="30" as="geometry" />
        </mxCell>
        <mxCell id="6po6rHESCgqyQbynay51-11" style="edgeStyle=orthogonalEdgeStyle;rounded=0;orthogonalLoop=1;jettySize=auto;html=1;exitX=0.5;exitY=0;exitDx=0;exitDy=0;fontSize=11;strokeColor=#66CC00;" parent="5QDhFZ3FKF-D9TqPaspZ-1" source="b-vuMiENwKfQlOrTJs6d-5" target="DafEFwL84ATMl172Mt__-5" edge="1">
          <mxGeometry relative="1" as="geometry" />
        </mxCell>
        <mxCell id="sIV6rOqdoyzxgfVIZr4r-1" value="&lt;b&gt;&lt;font style=&quot;font-size: 18px&quot;&gt;1c&lt;/font&gt;&lt;/b&gt;" style="ellipse;whiteSpace=wrap;html=1;aspect=fixed;strokeColor=#FFFFFF;fillColor=#B3B3B3;fontSize=20;" parent="5QDhFZ3FKF-D9TqPaspZ-1" vertex="1">
          <mxGeometry x="320" y="383" width="30" height="30" as="geometry" />
        </mxCell>
        <mxCell id="sIV6rOqdoyzxgfVIZr4r-2" value="&lt;b&gt;&lt;font style=&quot;font-size: 18px&quot;&gt;1e&lt;/font&gt;&lt;/b&gt;" style="ellipse;whiteSpace=wrap;html=1;aspect=fixed;strokeColor=#FFFFFF;fillColor=#B3B3B3;fontSize=20;" parent="5QDhFZ3FKF-D9TqPaspZ-1" vertex="1">
          <mxGeometry x="60" y="362" width="30" height="30" as="geometry" />
        </mxCell>
        <mxCell id="sIV6rOqdoyzxgfVIZr4r-3" value="&lt;b&gt;&lt;font style=&quot;font-size: 18px&quot;&gt;1f&lt;/font&gt;&lt;/b&gt;" style="ellipse;whiteSpace=wrap;html=1;aspect=fixed;strokeColor=#FFFFFF;fillColor=#B3B3B3;fontSize=20;" parent="5QDhFZ3FKF-D9TqPaspZ-1" vertex="1">
          <mxGeometry x="77" y="933" width="30" height="30" as="geometry" />
        </mxCell>
        <mxCell id="3cHPP-RWXiZP0hmBgrUZ-17" value="&lt;b&gt;&lt;font style=&quot;font-size: 18px&quot;&gt;2b&lt;/font&gt;&lt;/b&gt;" style="ellipse;whiteSpace=wrap;html=1;aspect=fixed;strokeColor=#FFFFFF;fillColor=#B3B3B3;fontSize=20;" parent="5QDhFZ3FKF-D9TqPaspZ-1" vertex="1">
          <mxGeometry x="300" y="580" width="30" height="30" as="geometry" />
        </mxCell>
        <mxCell id="sIV6rOqdoyzxgfVIZr4r-4" value="&lt;b&gt;&lt;font style=&quot;font-size: 18px&quot;&gt;2c&lt;/font&gt;&lt;/b&gt;" style="ellipse;whiteSpace=wrap;html=1;aspect=fixed;strokeColor=#FFFFFF;fillColor=#B3B3B3;fontSize=20;" parent="5QDhFZ3FKF-D9TqPaspZ-1" vertex="1">
          <mxGeometry x="362" y="385" width="28" height="28" as="geometry" />
        </mxCell>
        <mxCell id="rlvEACRnKUC5h2nOtBYd-3" style="edgeStyle=orthogonalEdgeStyle;rounded=0;orthogonalLoop=1;jettySize=auto;html=1;exitX=0;exitY=0.5;exitDx=0;exitDy=0;entryX=1;entryY=0.5;entryDx=0;entryDy=0;" parent="5QDhFZ3FKF-D9TqPaspZ-1" source="rlvEACRnKUC5h2nOtBYd-0" target="5QDhFZ3FKF-D9TqPaspZ-9" edge="1">
          <mxGeometry relative="1" as="geometry" />
        </mxCell>
        <mxCell id="rlvEACRnKUC5h2nOtBYd-0" value="Gemalto" style="rounded=1;whiteSpace=wrap;html=1;verticalAlign=top;" parent="5QDhFZ3FKF-D9TqPaspZ-1" vertex="1">
          <mxGeometry x="596.52" y="362.5" width="119.22" height="59" as="geometry" />
        </mxCell>
        <mxCell id="rlvEACRnKUC5h2nOtBYd-5" style="edgeStyle=orthogonalEdgeStyle;rounded=0;orthogonalLoop=1;jettySize=auto;html=1;exitX=0;exitY=0.75;exitDx=0;exitDy=0;" parent="5QDhFZ3FKF-D9TqPaspZ-1" source="rlvEACRnKUC5h2nOtBYd-1" target="rlvEACRnKUC5h2nOtBYd-0" edge="1">
          <mxGeometry relative="1" as="geometry" />
        </mxCell>
        <mxCell id="rlvEACRnKUC5h2nOtBYd-1" value="" style="shape=image;html=1;verticalAlign=top;verticalLabelPosition=bottom;labelBackgroundColor=#ffffff;imageAspect=0;aspect=fixed;image=https://cdn2.iconfinder.com/data/icons/people-80/96/Picture1-128.png" parent="5QDhFZ3FKF-D9TqPaspZ-1" vertex="1">
          <mxGeometry x="800" y="336" width="74" height="74" as="geometry" />
        </mxCell>
        <mxCell id="rlvEACRnKUC5h2nOtBYd-2" value="Finance Approvers" style="text;html=1;resizable=0;points=[];autosize=1;align=left;verticalAlign=top;spacingTop=-4;" parent="5QDhFZ3FKF-D9TqPaspZ-1" vertex="1">
          <mxGeometry x="791" y="411" width="120" height="10" as="geometry" />
        </mxCell>
        <mxCell id="rlvEACRnKUC5h2nOtBYd-6" value="" style="edgeStyle=orthogonalEdgeStyle;rounded=0;orthogonalLoop=1;jettySize=auto;html=1;fillColor=#e51400;strokeColor=#000000;" parent="5QDhFZ3FKF-D9TqPaspZ-1" edge="1">
          <mxGeometry x="-1" y="-34" relative="1" as="geometry">
            <mxPoint x="629" y="988" as="sourcePoint" />
            <mxPoint x="665" y="988" as="targetPoint" />
            <mxPoint as="offset" />
          </mxGeometry>
        </mxCell>
        <mxCell id="rlvEACRnKUC5h2nOtBYd-7" value="All BU&#39;s" style="text;html=1;resizable=0;points=[];autosize=1;align=left;verticalAlign=top;spacingTop=-4;" parent="5QDhFZ3FKF-D9TqPaspZ-1" vertex="1">
          <mxGeometry x="670" y="980" width="60" height="10" as="geometry" />
        </mxCell>
        <mxCell id="5q9rEaO1DBrPo36cM0hX-1" value="&lt;b&gt;&lt;font style=&quot;font-size: 18px&quot;&gt;4a&lt;/font&gt;&lt;/b&gt;" style="ellipse;whiteSpace=wrap;html=1;aspect=fixed;strokeColor=#FFFFFF;fillColor=#B3B3B3;fontSize=20;" parent="5QDhFZ3FKF-D9TqPaspZ-1" vertex="1">
          <mxGeometry x="573" y="353" width="30" height="30" as="geometry" />
        </mxCell>
        <mxCell id="5q9rEaO1DBrPo36cM0hX-2" value="&lt;b&gt;&lt;font style=&quot;font-size: 18px&quot;&gt;4b&lt;/font&gt;&lt;/b&gt;" style="ellipse;whiteSpace=wrap;html=1;aspect=fixed;strokeColor=#FFFFFF;fillColor=#B3B3B3;fontSize=20;" parent="5QDhFZ3FKF-D9TqPaspZ-1" vertex="1">
          <mxGeometry x="384.5" y="323" width="30" height="30" as="geometry" />
        </mxCell>
        <mxCell id="5q9rEaO1DBrPo36cM0hX-5" value="&lt;b&gt;&lt;font style=&quot;font-size: 18px&quot;&gt;4c&lt;/font&gt;&lt;/b&gt;" style="ellipse;whiteSpace=wrap;html=1;aspect=fixed;strokeColor=#FFFFFF;fillColor=#B3B3B3;fontSize=20;" parent="5QDhFZ3FKF-D9TqPaspZ-1" vertex="1">
          <mxGeometry x="354.5" y="190" width="30" height="30" as="geometry" />
        </mxCell>
      </root>
    </mxGraphModel>
  </diagram>
  <diagram name="Bottomline to-be" id="aEMIsJk5x5D3iQi7A8b6">
    <mxGraphModel dx="1992" dy="1671" grid="1" gridSize="10" guides="1" tooltips="1" connect="1" arrows="1" fold="1" page="1" pageScale="1" pageWidth="827" pageHeight="1169" math="0" shadow="0">
      <root>
        <mxCell id="v-nkVBjBGN799Da0-83n-0" />
        <mxCell id="v-nkVBjBGN799Da0-83n-1" parent="v-nkVBjBGN799Da0-83n-0" />
        <mxCell id="v-nkVBjBGN799Da0-83n-2" value="&lt;font style=&quot;font-size: 16px&quot;&gt;Nobia Network&lt;/font&gt;" style="rounded=1;whiteSpace=wrap;html=1;dashed=1;verticalAlign=top;align=left;" parent="v-nkVBjBGN799Da0-83n-1" vertex="1">
          <mxGeometry x="-47" y="370" width="807" height="510" as="geometry" />
        </mxCell>
        <mxCell id="v-nkVBjBGN799Da0-83n-3" value="SAP ECC" style="rounded=1;whiteSpace=wrap;html=1;verticalAlign=top;" parent="v-nkVBjBGN799Da0-83n-1" vertex="1">
          <mxGeometry x="-16" y="610" width="170" height="250" as="geometry" />
        </mxCell>
        <mxCell id="v-nkVBjBGN799Da0-83n-81" value="&lt;font style=&quot;font-size: 11px&quot;&gt;*NEW Payments Process&lt;/font&gt;" style="rounded=1;whiteSpace=wrap;html=1;dashed=1;verticalAlign=top;fontSize=11;" parent="v-nkVBjBGN799Da0-83n-1" vertex="1">
          <mxGeometry y="631.8181818181819" width="140" height="158.1818181818182" as="geometry" />
        </mxCell>
        <mxCell id="v-nkVBjBGN799Da0-83n-4" value="SAP S/4 Hana (UK Supply Chain Instance)" style="rounded=1;whiteSpace=wrap;html=1;verticalAlign=top;" parent="v-nkVBjBGN799Da0-83n-1" vertex="1">
          <mxGeometry x="214" y="659" width="180" height="200" as="geometry" />
        </mxCell>
        <mxCell id="v-nkVBjBGN799Da0-83n-6" style="edgeStyle=orthogonalEdgeStyle;rounded=0;orthogonalLoop=1;jettySize=auto;html=1;exitX=0.55;exitY=0.95;exitDx=0;exitDy=0;exitPerimeter=0;strokeColor=#000000;" parent="v-nkVBjBGN799Da0-83n-1" source="v-nkVBjBGN799Da0-83n-7" target="v-nkVBjBGN799Da0-83n-16" edge="1">
          <mxGeometry relative="1" as="geometry" />
        </mxCell>
        <mxCell id="v-nkVBjBGN799Da0-83n-7" value="BACS" style="ellipse;shape=cloud;whiteSpace=wrap;html=1;direction=west;" parent="v-nkVBjBGN799Da0-83n-1" vertex="1">
          <mxGeometry x="213" y="-71" width="280" height="170" as="geometry" />
        </mxCell>
        <mxCell id="v-nkVBjBGN799Da0-83n-8" style="edgeStyle=orthogonalEdgeStyle;rounded=0;orthogonalLoop=1;jettySize=auto;html=1;exitX=0.5;exitY=0;exitDx=0;exitDy=0;entryX=0.625;entryY=0.2;entryDx=0;entryDy=0;entryPerimeter=0;" parent="v-nkVBjBGN799Da0-83n-1" target="v-nkVBjBGN799Da0-83n-7" edge="1">
          <mxGeometry relative="1" as="geometry">
            <mxPoint x="318" y="212" as="sourcePoint" />
          </mxGeometry>
        </mxCell>
        <mxCell id="v-nkVBjBGN799Da0-83n-10" style="edgeStyle=orthogonalEdgeStyle;rounded=0;orthogonalLoop=1;jettySize=auto;html=1;exitX=0;exitY=0.5;exitDx=0;exitDy=0;entryX=1;entryY=0.5;entryDx=0;entryDy=0;fillColor=#6a00ff;strokeColor=#3700CC;" parent="v-nkVBjBGN799Da0-83n-1" source="v-nkVBjBGN799Da0-83n-82" target="v-nkVBjBGN799Da0-83n-13" edge="1">
          <mxGeometry relative="1" as="geometry" />
        </mxCell>
        <mxCell id="v-nkVBjBGN799Da0-83n-11" value="Remittance" style="text;html=1;resizable=0;points=[];align=center;verticalAlign=middle;labelBackgroundColor=#ffffff;" parent="v-nkVBjBGN799Da0-83n-10" vertex="1" connectable="0">
          <mxGeometry x="0.2016" y="2" relative="1" as="geometry">
            <mxPoint as="offset" />
          </mxGeometry>
        </mxCell>
        <mxCell id="v-nkVBjBGN799Da0-83n-13" value="" style="shape=image;html=1;verticalAlign=top;verticalLabelPosition=bottom;labelBackgroundColor=#ffffff;imageAspect=0;aspect=fixed;image=https://cdn2.iconfinder.com/data/icons/people-80/96/Picture1-128.png" parent="v-nkVBjBGN799Da0-83n-1" vertex="1">
          <mxGeometry x="-260" y="736" width="74" height="74" as="geometry" />
        </mxCell>
        <mxCell id="v-nkVBjBGN799Da0-83n-14" value="Magnet Suppliers" style="text;html=1;resizable=0;points=[];autosize=1;align=left;verticalAlign=top;spacingTop=-4;" parent="v-nkVBjBGN799Da0-83n-1" vertex="1">
          <mxGeometry x="-270" y="810" width="110" height="20" as="geometry" />
        </mxCell>
        <mxCell id="v-nkVBjBGN799Da0-83n-15" value="Oracle EBS" style="rounded=1;whiteSpace=wrap;html=1;verticalAlign=top;" parent="v-nkVBjBGN799Da0-83n-1" vertex="1">
          <mxGeometry x="444" y="670" width="296" height="140" as="geometry" />
        </mxCell>
        <mxCell id="v-nkVBjBGN799Da0-83n-16" value="" style="shape=image;html=1;verticalAlign=top;verticalLabelPosition=bottom;labelBackgroundColor=#ffffff;imageAspect=0;aspect=fixed;image=https://cdn0.iconfinder.com/data/icons/business-and-finance-86/512/business_finance_money-32-2-128.png" parent="v-nkVBjBGN799Da0-83n-1" vertex="1">
          <mxGeometry x="284" y="-228" width="110" height="110" as="geometry" />
        </mxCell>
        <mxCell id="v-nkVBjBGN799Da0-83n-17" value="Banks" style="text;html=1;resizable=0;points=[];autosize=1;align=left;verticalAlign=top;spacingTop=-4;" parent="v-nkVBjBGN799Da0-83n-1" vertex="1">
          <mxGeometry x="402" y="-128" width="50" height="10" as="geometry" />
        </mxCell>
        <mxCell id="v-nkVBjBGN799Da0-83n-20" style="edgeStyle=orthogonalEdgeStyle;rounded=0;orthogonalLoop=1;jettySize=auto;html=1;exitX=0.5;exitY=1;exitDx=0;exitDy=0;strokeColor=#3700CC;" parent="v-nkVBjBGN799Da0-83n-1" source="v-nkVBjBGN799Da0-83n-22" target="v-nkVBjBGN799Da0-83n-45" edge="1">
          <mxGeometry relative="1" as="geometry" />
        </mxCell>
        <mxCell id="v-nkVBjBGN799Da0-83n-21" value="Cheque&amp;nbsp;&lt;br&gt;Payments" style="text;html=1;align=center;verticalAlign=middle;resizable=0;points=[];labelBackgroundColor=#ffffff;" parent="v-nkVBjBGN799Da0-83n-20" vertex="1" connectable="0">
          <mxGeometry x="-0.1539" y="-1" relative="1" as="geometry">
            <mxPoint as="offset" />
          </mxGeometry>
        </mxCell>
        <mxCell id="v-nkVBjBGN799Da0-83n-22" value="zPayments" style="rounded=1;whiteSpace=wrap;html=1;verticalAlign=top;" parent="v-nkVBjBGN799Da0-83n-1" vertex="1">
          <mxGeometry x="-6" y="810" width="150" height="40" as="geometry" />
        </mxCell>
        <mxCell id="v-nkVBjBGN799Da0-83n-23" value="" style="shape=image;html=1;verticalAlign=top;verticalLabelPosition=bottom;labelBackgroundColor=#ffffff;imageAspect=0;aspect=fixed;image=https://cdn2.iconfinder.com/data/icons/people-80/96/Picture1-128.png" parent="v-nkVBjBGN799Da0-83n-1" vertex="1">
          <mxGeometry x="266" y="970" width="74" height="74" as="geometry" />
        </mxCell>
        <mxCell id="v-nkVBjBGN799Da0-83n-24" value="UK Supply Chain Suppliers" style="text;html=1;resizable=0;points=[];autosize=1;align=left;verticalAlign=top;spacingTop=-4;" parent="v-nkVBjBGN799Da0-83n-1" vertex="1">
          <mxGeometry x="223" y="1044" width="160" height="10" as="geometry" />
        </mxCell>
        <mxCell id="v-nkVBjBGN799Da0-83n-25" value="" style="shape=image;html=1;verticalAlign=top;verticalLabelPosition=bottom;labelBackgroundColor=#ffffff;imageAspect=0;aspect=fixed;image=https://cdn2.iconfinder.com/data/icons/people-80/96/Picture1-128.png" parent="v-nkVBjBGN799Da0-83n-1" vertex="1">
          <mxGeometry x="817" y="658" width="74" height="74" as="geometry" />
        </mxCell>
        <mxCell id="v-nkVBjBGN799Da0-83n-26" value="Gower Suppliers" style="text;html=1;resizable=0;points=[];autosize=1;align=left;verticalAlign=top;spacingTop=-4;" parent="v-nkVBjBGN799Da0-83n-1" vertex="1">
          <mxGeometry x="817" y="735" width="100" height="10" as="geometry" />
        </mxCell>
        <mxCell id="v-nkVBjBGN799Da0-83n-27" value="" style="edgeStyle=orthogonalEdgeStyle;rounded=0;orthogonalLoop=1;jettySize=auto;html=1;fillColor=#e51400;strokeColor=#B20000;" parent="v-nkVBjBGN799Da0-83n-1" edge="1">
          <mxGeometry x="-1" y="-34" relative="1" as="geometry">
            <mxPoint x="630" y="907" as="sourcePoint" />
            <mxPoint x="666" y="907" as="targetPoint" />
            <mxPoint as="offset" />
          </mxGeometry>
        </mxCell>
        <mxCell id="v-nkVBjBGN799Da0-83n-28" value="" style="edgeStyle=orthogonalEdgeStyle;rounded=0;orthogonalLoop=1;jettySize=auto;html=1;fillColor=#e51400;strokeColor=#3700CC;" parent="v-nkVBjBGN799Da0-83n-1" edge="1">
          <mxGeometry x="-1" y="-34" relative="1" as="geometry">
            <mxPoint x="631" y="931" as="sourcePoint" />
            <mxPoint x="667" y="931" as="targetPoint" />
            <mxPoint as="offset" />
          </mxGeometry>
        </mxCell>
        <mxCell id="v-nkVBjBGN799Da0-83n-29" value="Gower Transactions" style="text;html=1;resizable=0;points=[];autosize=1;align=left;verticalAlign=top;spacingTop=-4;" parent="v-nkVBjBGN799Da0-83n-1" vertex="1">
          <mxGeometry x="670" y="898" width="120" height="10" as="geometry" />
        </mxCell>
        <mxCell id="v-nkVBjBGN799Da0-83n-30" value="Magnet Transactions" style="text;html=1;resizable=0;points=[];autosize=1;align=left;verticalAlign=top;spacingTop=-4;" parent="v-nkVBjBGN799Da0-83n-1" vertex="1">
          <mxGeometry x="670" y="923" width="130" height="10" as="geometry" />
        </mxCell>
        <mxCell id="v-nkVBjBGN799Da0-83n-31" value="" style="edgeStyle=orthogonalEdgeStyle;rounded=0;orthogonalLoop=1;jettySize=auto;html=1;fillColor=#e51400;strokeColor=#66CC00;" parent="v-nkVBjBGN799Da0-83n-1" edge="1">
          <mxGeometry x="-1" y="-34" relative="1" as="geometry">
            <mxPoint x="629" y="961" as="sourcePoint" />
            <mxPoint x="665" y="961" as="targetPoint" />
            <mxPoint as="offset" />
          </mxGeometry>
        </mxCell>
        <mxCell id="v-nkVBjBGN799Da0-83n-32" value="UK SC Transactions" style="text;html=1;resizable=0;points=[];autosize=1;align=left;verticalAlign=top;spacingTop=-4;" parent="v-nkVBjBGN799Da0-83n-1" vertex="1">
          <mxGeometry x="670" y="953" width="120" height="10" as="geometry" />
        </mxCell>
        <mxCell id="v-nkVBjBGN799Da0-83n-33" value="Fileshare" style="rounded=1;whiteSpace=wrap;html=1;verticalAlign=top;" parent="v-nkVBjBGN799Da0-83n-1" vertex="1">
          <mxGeometry x="20" y="495" width="580" height="80" as="geometry" />
        </mxCell>
        <mxCell id="v-nkVBjBGN799Da0-83n-45" value="" style="verticalLabelPosition=bottom;aspect=fixed;html=1;verticalAlign=top;strokeColor=none;align=center;outlineConnect=0;shape=mxgraph.citrix.printer;" parent="v-nkVBjBGN799Da0-83n-1" vertex="1">
          <mxGeometry x="32" y="963" width="70" height="70" as="geometry" />
        </mxCell>
        <mxCell id="hlLufQe1nZ5W-GWC-6NJ-13" style="edgeStyle=orthogonalEdgeStyle;rounded=0;orthogonalLoop=1;jettySize=auto;html=1;exitX=0.5;exitY=1;exitDx=0;exitDy=0;startArrow=none;startFill=0;endArrow=classic;endFill=1;strokeColor=#B20000;dashed=1;" parent="v-nkVBjBGN799Da0-83n-1" source="v-nkVBjBGN799Da0-83n-46" target="hlLufQe1nZ5W-GWC-6NJ-12" edge="1">
          <mxGeometry relative="1" as="geometry" />
        </mxCell>
        <mxCell id="v-nkVBjBGN799Da0-83n-46" value="Format Payments (XXGFLBACS)" style="rounded=1;whiteSpace=wrap;html=1;verticalAlign=top;" parent="v-nkVBjBGN799Da0-83n-1" vertex="1">
          <mxGeometry x="465" y="753" width="110" height="40" as="geometry" />
        </mxCell>
        <mxCell id="v-nkVBjBGN799Da0-83n-48" value="Remittance Advice&lt;br&gt;(GFL_SREM1_NGT)" style="rounded=1;whiteSpace=wrap;html=1;verticalAlign=top;" parent="v-nkVBjBGN799Da0-83n-1" vertex="1">
          <mxGeometry x="596.52" y="695" width="126" height="37.5" as="geometry" />
        </mxCell>
        <mxCell id="v-nkVBjBGN799Da0-83n-49" style="edgeStyle=orthogonalEdgeStyle;rounded=0;orthogonalLoop=1;jettySize=auto;html=1;exitX=1;exitY=0.5;exitDx=0;exitDy=0;entryX=0;entryY=0.75;entryDx=0;entryDy=0;strokeColor=#B20000;" parent="v-nkVBjBGN799Da0-83n-1" source="v-nkVBjBGN799Da0-83n-48" target="v-nkVBjBGN799Da0-83n-25" edge="1">
          <mxGeometry relative="1" as="geometry" />
        </mxCell>
        <mxCell id="v-nkVBjBGN799Da0-83n-50" value="Remittance" style="text;html=1;align=center;verticalAlign=middle;resizable=0;points=[];labelBackgroundColor=#ffffff;" parent="v-nkVBjBGN799Da0-83n-49" vertex="1" connectable="0">
          <mxGeometry x="-0.2925" y="-4" relative="1" as="geometry">
            <mxPoint x="4.5" y="4.579999999999998" as="offset" />
          </mxGeometry>
        </mxCell>
        <mxCell id="v-nkVBjBGN799Da0-83n-52" value="&lt;b&gt;&lt;font style=&quot;font-size: 18px&quot;&gt;1d&lt;/font&gt;&lt;/b&gt;" style="ellipse;whiteSpace=wrap;html=1;aspect=fixed;strokeColor=#FFFFFF;fillColor=#B3B3B3;fontSize=20;" parent="v-nkVBjBGN799Da0-83n-1" vertex="1">
          <mxGeometry x="-180" y="736" width="30" height="30" as="geometry" />
        </mxCell>
        <mxCell id="v-nkVBjBGN799Da0-83n-53" value="" style="edgeStyle=orthogonalEdgeStyle;rounded=0;orthogonalLoop=1;jettySize=auto;html=1;fillColor=#e51400;strokeColor=#66CC00;exitX=0.5;exitY=1;exitDx=0;exitDy=0;" parent="v-nkVBjBGN799Da0-83n-1" source="v-nkVBjBGN799Da0-83n-62" target="v-nkVBjBGN799Da0-83n-23" edge="1">
          <mxGeometry x="-1" y="-34" relative="1" as="geometry">
            <mxPoint x="100" y="680" as="sourcePoint" />
            <mxPoint x="140" y="558" as="targetPoint" />
            <mxPoint as="offset" />
          </mxGeometry>
        </mxCell>
        <mxCell id="v-nkVBjBGN799Da0-83n-54" value="Remittance" style="text;html=1;align=center;verticalAlign=middle;resizable=0;points=[];labelBackgroundColor=#ffffff;" parent="v-nkVBjBGN799Da0-83n-53" vertex="1" connectable="0">
          <mxGeometry x="0.1421" y="2" relative="1" as="geometry">
            <mxPoint as="offset" />
          </mxGeometry>
        </mxCell>
        <mxCell id="v-nkVBjBGN799Da0-83n-55" value="&lt;b&gt;&lt;font style=&quot;font-size: 18px&quot;&gt;2d&lt;/font&gt;&lt;/b&gt;" style="ellipse;whiteSpace=wrap;html=1;aspect=fixed;strokeColor=#FFFFFF;fillColor=#B3B3B3;fontSize=20;" parent="v-nkVBjBGN799Da0-83n-1" vertex="1">
          <mxGeometry x="302" y="868" width="30" height="30" as="geometry" />
        </mxCell>
        <mxCell id="v-nkVBjBGN799Da0-83n-56" value="&lt;b&gt;&lt;font style=&quot;font-size: 18px&quot;&gt;3a&lt;/font&gt;&lt;/b&gt;" style="ellipse;whiteSpace=wrap;html=1;aspect=fixed;strokeColor=#FFFFFF;fillColor=#B3B3B3;fontSize=20;" parent="v-nkVBjBGN799Da0-83n-1" vertex="1">
          <mxGeometry x="480" y="666" width="30" height="30" as="geometry" />
        </mxCell>
        <mxCell id="v-nkVBjBGN799Da0-83n-57" value="&lt;b&gt;&lt;font style=&quot;font-size: 18px&quot;&gt;3b&lt;/font&gt;&lt;/b&gt;" style="ellipse;whiteSpace=wrap;html=1;aspect=fixed;strokeColor=#FFFFFF;fillColor=#B3B3B3;fontSize=20;" parent="v-nkVBjBGN799Da0-83n-1" vertex="1">
          <mxGeometry x="539" y="558" width="30" height="30" as="geometry" />
        </mxCell>
        <mxCell id="v-nkVBjBGN799Da0-83n-60" value="" style="group" parent="v-nkVBjBGN799Da0-83n-1" vertex="1" connectable="0">
          <mxGeometry x="233" y="696" width="146.5" height="154" as="geometry" />
        </mxCell>
        <mxCell id="v-nkVBjBGN799Da0-83n-61" value="&lt;font style=&quot;font-size: 11px;&quot;&gt;Aurora Payments Process&lt;/font&gt;" style="rounded=1;whiteSpace=wrap;html=1;dashed=1;verticalAlign=top;fontSize=11;" parent="v-nkVBjBGN799Da0-83n-60" vertex="1">
          <mxGeometry width="140" height="154" as="geometry" />
        </mxCell>
        <mxCell id="v-nkVBjBGN799Da0-83n-62" value="Custom SAP Script" style="rounded=1;whiteSpace=wrap;html=1;verticalAlign=top;" parent="v-nkVBjBGN799Da0-83n-60" vertex="1">
          <mxGeometry x="12.5" y="117" width="115" height="25" as="geometry" />
        </mxCell>
        <mxCell id="v-nkVBjBGN799Da0-83n-63" value="&lt;span style=&quot;font-family: &amp;#34;segoe ui&amp;#34; , sans-serif ; font-size: 10pt&quot;&gt;RFFOAVIS_FPAYM (Standard Payments)&lt;/span&gt;&lt;br&gt;&lt;div class=&quot;WordSection1&quot;&gt;&lt;br&gt;&lt;br&gt;&lt;/div&gt;" style="rounded=1;whiteSpace=wrap;html=1;verticalAlign=top;" parent="v-nkVBjBGN799Da0-83n-60" vertex="1">
          <mxGeometry x="9" y="67" width="125" height="40" as="geometry" />
        </mxCell>
        <mxCell id="v-nkVBjBGN799Da0-83n-64" value="&lt;font face=&quot;segoe ui, sans-serif&quot;&gt;&lt;span style=&quot;font-size: 13.3333px&quot;&gt;Custom Tree&lt;/span&gt;&lt;/font&gt;" style="rounded=1;whiteSpace=wrap;html=1;verticalAlign=top;" parent="v-nkVBjBGN799Da0-83n-60" vertex="1">
          <mxGeometry x="26.5" y="30" width="90" height="30" as="geometry" />
        </mxCell>
        <mxCell id="v-nkVBjBGN799Da0-83n-65" value="&lt;b&gt;&lt;font style=&quot;font-size: 18px&quot;&gt;2a&lt;/font&gt;&lt;/b&gt;" style="ellipse;whiteSpace=wrap;html=1;aspect=fixed;strokeColor=#FFFFFF;fillColor=#B3B3B3;fontSize=20;" parent="v-nkVBjBGN799Da0-83n-60" vertex="1">
          <mxGeometry x="116.5" y="60" width="30" height="30" as="geometry" />
        </mxCell>
        <mxCell id="v-nkVBjBGN799Da0-83n-68" value="&lt;b&gt;&lt;font style=&quot;font-size: 18px&quot;&gt;1e&lt;/font&gt;&lt;/b&gt;" style="ellipse;whiteSpace=wrap;html=1;aspect=fixed;strokeColor=#FFFFFF;fillColor=#B3B3B3;fontSize=20;" parent="v-nkVBjBGN799Da0-83n-1" vertex="1">
          <mxGeometry x="94" y="838" width="30" height="30" as="geometry" />
        </mxCell>
        <mxCell id="v-nkVBjBGN799Da0-83n-72" value="&lt;b&gt;&lt;font style=&quot;font-size: 18px&quot;&gt;3d&lt;/font&gt;&lt;/b&gt;" style="ellipse;whiteSpace=wrap;html=1;aspect=fixed;strokeColor=#FFFFFF;fillColor=#B3B3B3;fontSize=20;" parent="v-nkVBjBGN799Da0-83n-1" vertex="1">
          <mxGeometry x="760" y="680" width="30" height="30" as="geometry" />
        </mxCell>
        <mxCell id="8qQYcJhZhcK-KQ7hlKwD-1" style="edgeStyle=orthogonalEdgeStyle;rounded=0;orthogonalLoop=1;jettySize=auto;html=1;exitX=0;exitY=0.5;exitDx=0;exitDy=0;entryX=1;entryY=0.5;entryDx=0;entryDy=0;" parent="v-nkVBjBGN799Da0-83n-1" source="v-nkVBjBGN799Da0-83n-76" target="8qQYcJhZhcK-KQ7hlKwD-0" edge="1">
          <mxGeometry relative="1" as="geometry" />
        </mxCell>
        <mxCell id="v-nkVBjBGN799Da0-83n-76" value="" style="shape=image;html=1;verticalAlign=top;verticalLabelPosition=bottom;labelBackgroundColor=#ffffff;imageAspect=0;aspect=fixed;image=https://cdn2.iconfinder.com/data/icons/people-80/96/Picture1-128.png" parent="v-nkVBjBGN799Da0-83n-1" vertex="1">
          <mxGeometry x="806" y="393" width="74" height="74" as="geometry" />
        </mxCell>
        <mxCell id="v-nkVBjBGN799Da0-83n-77" value="Finance Approvers" style="text;html=1;resizable=0;points=[];autosize=1;align=left;verticalAlign=top;spacingTop=-4;" parent="v-nkVBjBGN799Da0-83n-1" vertex="1">
          <mxGeometry x="790" y="465" width="120" height="10" as="geometry" />
        </mxCell>
        <mxCell id="v-nkVBjBGN799Da0-83n-78" value="" style="edgeStyle=orthogonalEdgeStyle;rounded=0;orthogonalLoop=1;jettySize=auto;html=1;fillColor=#e51400;strokeColor=#000000;" parent="v-nkVBjBGN799Da0-83n-1" edge="1">
          <mxGeometry x="-1" y="-34" relative="1" as="geometry">
            <mxPoint x="629" y="988" as="sourcePoint" />
            <mxPoint x="665" y="988" as="targetPoint" />
            <mxPoint as="offset" />
          </mxGeometry>
        </mxCell>
        <mxCell id="v-nkVBjBGN799Da0-83n-79" value="All BU&#39;s" style="text;html=1;resizable=0;points=[];autosize=1;align=left;verticalAlign=top;spacingTop=-4;" parent="v-nkVBjBGN799Da0-83n-1" vertex="1">
          <mxGeometry x="670" y="980" width="60" height="10" as="geometry" />
        </mxCell>
        <mxCell id="v-nkVBjBGN799Da0-83n-83" value="&lt;span style=&quot;font-family: &amp;#34;segoe ui&amp;#34; , sans-serif ; font-size: 10pt&quot;&gt;RFFOAVIS_FPAYM (Standard Payments)&lt;/span&gt;&lt;br&gt;&lt;div class=&quot;WordSection1&quot;&gt;&lt;br&gt;&lt;br&gt;&lt;/div&gt;" style="rounded=1;whiteSpace=wrap;html=1;verticalAlign=top;" parent="v-nkVBjBGN799Da0-83n-1" vertex="1">
          <mxGeometry x="6.5" y="705" width="125" height="40" as="geometry" />
        </mxCell>
        <mxCell id="v-nkVBjBGN799Da0-83n-82" value="Custom SAP Script" style="rounded=1;whiteSpace=wrap;html=1;verticalAlign=top;" parent="v-nkVBjBGN799Da0-83n-1" vertex="1">
          <mxGeometry x="14" y="761.6318181818182" width="115" height="22.727272727272723" as="geometry" />
        </mxCell>
        <mxCell id="hlLufQe1nZ5W-GWC-6NJ-3" style="edgeStyle=orthogonalEdgeStyle;rounded=0;orthogonalLoop=1;jettySize=auto;html=1;exitX=0.5;exitY=0;exitDx=0;exitDy=0;strokeColor=#3700CC;" parent="v-nkVBjBGN799Da0-83n-1" source="v-nkVBjBGN799Da0-83n-84" target="hlLufQe1nZ5W-GWC-6NJ-0" edge="1">
          <mxGeometry relative="1" as="geometry" />
        </mxCell>
        <mxCell id="v-nkVBjBGN799Da0-83n-84" value="&lt;font face=&quot;segoe ui, sans-serif&quot;&gt;&lt;span style=&quot;font-size: 13.3333px&quot;&gt;Custom Tree&lt;/span&gt;&lt;/font&gt;" style="rounded=1;whiteSpace=wrap;html=1;verticalAlign=top;" parent="v-nkVBjBGN799Da0-83n-1" vertex="1">
          <mxGeometry x="26.5" y="659.0909090909091" width="90" height="27.27272727272727" as="geometry" />
        </mxCell>
        <mxCell id="hlLufQe1nZ5W-GWC-6NJ-9" style="edgeStyle=orthogonalEdgeStyle;rounded=0;orthogonalLoop=1;jettySize=auto;html=1;exitX=0.5;exitY=0;exitDx=0;exitDy=0;strokeColor=#B20000;" parent="v-nkVBjBGN799Da0-83n-1" source="v-nkVBjBGN799Da0-83n-88" target="hlLufQe1nZ5W-GWC-6NJ-2" edge="1">
          <mxGeometry relative="1" as="geometry" />
        </mxCell>
        <mxCell id="v-nkVBjBGN799Da0-83n-88" value="New*BACS Program" style="rounded=1;whiteSpace=wrap;html=1;verticalAlign=top;" parent="v-nkVBjBGN799Da0-83n-1" vertex="1">
          <mxGeometry x="465" y="693.75" width="110" height="40" as="geometry" />
        </mxCell>
        <mxCell id="b5ZJnx4R3PjIRwNplm8--5" style="edgeStyle=orthogonalEdgeStyle;rounded=0;orthogonalLoop=1;jettySize=auto;html=1;exitX=0.5;exitY=0;exitDx=0;exitDy=0;entryX=0.555;entryY=0.15;entryDx=0;entryDy=0;entryPerimeter=0;strokeColor=#000000;" parent="v-nkVBjBGN799Da0-83n-1" source="b5ZJnx4R3PjIRwNplm8--0" target="b5ZJnx4R3PjIRwNplm8--1" edge="1">
          <mxGeometry relative="1" as="geometry" />
        </mxCell>
        <mxCell id="hlLufQe1nZ5W-GWC-6NJ-4" style="edgeStyle=orthogonalEdgeStyle;rounded=0;orthogonalLoop=1;jettySize=auto;html=1;exitX=0.25;exitY=1;exitDx=0;exitDy=0;entryX=0.5;entryY=0;entryDx=0;entryDy=0;startArrow=classic;startFill=1;endArrow=none;endFill=0;strokeColor=#3700CC;" parent="v-nkVBjBGN799Da0-83n-1" source="b5ZJnx4R3PjIRwNplm8--0" target="hlLufQe1nZ5W-GWC-6NJ-0" edge="1">
          <mxGeometry relative="1" as="geometry">
            <Array as="points">
              <mxPoint x="253" y="480" />
              <mxPoint x="72" y="480" />
            </Array>
          </mxGeometry>
        </mxCell>
        <mxCell id="b5ZJnx4R3PjIRwNplm8--0" value="SAP PO" style="rounded=1;whiteSpace=wrap;html=1;verticalAlign=top;" parent="v-nkVBjBGN799Da0-83n-1" vertex="1">
          <mxGeometry x="200" y="390" width="210" height="60" as="geometry" />
        </mxCell>
        <mxCell id="b5ZJnx4R3PjIRwNplm8--1" value="PTX" style="ellipse;shape=cloud;whiteSpace=wrap;html=1;direction=west;align=center;verticalAlign=middle;" parent="v-nkVBjBGN799Da0-83n-1" vertex="1">
          <mxGeometry x="60" y="110" width="550" height="200" as="geometry" />
        </mxCell>
        <mxCell id="8qQYcJhZhcK-KQ7hlKwD-3" style="edgeStyle=orthogonalEdgeStyle;rounded=0;orthogonalLoop=1;jettySize=auto;html=1;exitX=0.5;exitY=0;exitDx=0;exitDy=0;entryX=0.144;entryY=0.262;entryDx=0;entryDy=0;entryPerimeter=0;" parent="v-nkVBjBGN799Da0-83n-1" source="8qQYcJhZhcK-KQ7hlKwD-0" target="b5ZJnx4R3PjIRwNplm8--1" edge="1">
          <mxGeometry relative="1" as="geometry" />
        </mxCell>
        <mxCell id="8qQYcJhZhcK-KQ7hlKwD-0" value="Gemalto" style="rounded=1;whiteSpace=wrap;html=1;verticalAlign=top;" parent="v-nkVBjBGN799Da0-83n-1" vertex="1">
          <mxGeometry x="471.29999999999995" y="400.5" width="119.22" height="59" as="geometry" />
        </mxCell>
        <mxCell id="hlLufQe1nZ5W-GWC-6NJ-0" value="" style="shape=image;html=1;verticalAlign=top;verticalLabelPosition=bottom;labelBackgroundColor=#ffffff;imageAspect=0;aspect=fixed;image=https://cdn0.iconfinder.com/data/icons/simple-darkcon-1/86/shit-128.png" parent="v-nkVBjBGN799Da0-83n-1" vertex="1">
          <mxGeometry x="52.500869565217386" y="520" width="38" height="38" as="geometry" />
        </mxCell>
        <mxCell id="hlLufQe1nZ5W-GWC-6NJ-5" style="edgeStyle=orthogonalEdgeStyle;rounded=0;orthogonalLoop=1;jettySize=auto;html=1;exitX=0.5;exitY=0;exitDx=0;exitDy=0;strokeColor=#66CC00;" parent="v-nkVBjBGN799Da0-83n-1" source="hlLufQe1nZ5W-GWC-6NJ-1" target="b5ZJnx4R3PjIRwNplm8--0" edge="1">
          <mxGeometry relative="1" as="geometry" />
        </mxCell>
        <mxCell id="hlLufQe1nZ5W-GWC-6NJ-1" value="" style="shape=image;html=1;verticalAlign=top;verticalLabelPosition=bottom;labelBackgroundColor=#ffffff;imageAspect=0;aspect=fixed;image=https://cdn0.iconfinder.com/data/icons/simple-darkcon-1/86/shit-128.png" parent="v-nkVBjBGN799Da0-83n-1" vertex="1">
          <mxGeometry x="286.0008695652174" y="520" width="38" height="38" as="geometry" />
        </mxCell>
        <mxCell id="hlLufQe1nZ5W-GWC-6NJ-6" style="edgeStyle=orthogonalEdgeStyle;rounded=0;orthogonalLoop=1;jettySize=auto;html=1;exitX=0.5;exitY=0;exitDx=0;exitDy=0;entryX=0.75;entryY=1;entryDx=0;entryDy=0;strokeColor=#B20000;" parent="v-nkVBjBGN799Da0-83n-1" source="hlLufQe1nZ5W-GWC-6NJ-2" target="b5ZJnx4R3PjIRwNplm8--0" edge="1">
          <mxGeometry relative="1" as="geometry">
            <Array as="points">
              <mxPoint x="512" y="480" />
              <mxPoint x="358" y="480" />
            </Array>
          </mxGeometry>
        </mxCell>
        <mxCell id="hlLufQe1nZ5W-GWC-6NJ-2" value="" style="shape=image;html=1;verticalAlign=top;verticalLabelPosition=bottom;labelBackgroundColor=#ffffff;imageAspect=0;aspect=fixed;image=https://cdn0.iconfinder.com/data/icons/simple-darkcon-1/86/shit-128.png" parent="v-nkVBjBGN799Da0-83n-1" vertex="1">
          <mxGeometry x="501.0008695652174" y="520" width="38" height="38" as="geometry" />
        </mxCell>
        <mxCell id="hlLufQe1nZ5W-GWC-6NJ-8" style="edgeStyle=orthogonalEdgeStyle;rounded=0;orthogonalLoop=1;jettySize=auto;html=1;exitX=0.5;exitY=0;exitDx=0;exitDy=0;entryX=0.5;entryY=1;entryDx=0;entryDy=0;strokeColor=#66CC00;" parent="v-nkVBjBGN799Da0-83n-1" source="v-nkVBjBGN799Da0-83n-64" target="hlLufQe1nZ5W-GWC-6NJ-1" edge="1">
          <mxGeometry relative="1" as="geometry" />
        </mxCell>
        <mxCell id="hlLufQe1nZ5W-GWC-6NJ-12" value="Bankline" style="ellipse;shape=cloud;whiteSpace=wrap;html=1;direction=west;" parent="v-nkVBjBGN799Da0-83n-1" vertex="1">
          <mxGeometry x="468" y="937" width="103" height="50" as="geometry" />
        </mxCell>
        <mxCell id="v-nkVBjBGN799Da0-83n-18" value="&lt;b&gt;&lt;font style=&quot;font-size: 18px&quot;&gt;1a&lt;/font&gt;&lt;/b&gt;" style="ellipse;whiteSpace=wrap;html=1;aspect=fixed;strokeColor=#FFFFFF;fillColor=#B3B3B3;fontSize=20;" parent="v-nkVBjBGN799Da0-83n-1" vertex="1">
          <mxGeometry x="124" y="693.75" width="30" height="30" as="geometry" />
        </mxCell>
        <mxCell id="Ioms9hJjkOqUQtVzRhn2-0" value="&lt;b&gt;&lt;font style=&quot;font-size: 18px&quot;&gt;1b&lt;/font&gt;&lt;/b&gt;" style="ellipse;whiteSpace=wrap;html=1;aspect=fixed;strokeColor=#FFFFFF;fillColor=#B3B3B3;fontSize=20;" parent="v-nkVBjBGN799Da0-83n-1" vertex="1">
          <mxGeometry x="90.5" y="560" width="30" height="30" as="geometry" />
        </mxCell>
        <mxCell id="ZAa1UiF6k-vzWmJ9FmpC-0" value="&lt;b&gt;&lt;font style=&quot;font-size: 18px&quot;&gt;1c&lt;/font&gt;&lt;/b&gt;" style="ellipse;whiteSpace=wrap;html=1;aspect=fixed;strokeColor=#FFFFFF;fillColor=#B3B3B3;fontSize=20;" parent="v-nkVBjBGN799Da0-83n-1" vertex="1">
          <mxGeometry x="233" y="415" width="30" height="30" as="geometry" />
        </mxCell>
        <mxCell id="ZAa1UiF6k-vzWmJ9FmpC-1" value="&lt;b&gt;&lt;font style=&quot;font-size: 18px&quot;&gt;2b&lt;/font&gt;&lt;/b&gt;" style="ellipse;whiteSpace=wrap;html=1;aspect=fixed;strokeColor=#FFFFFF;fillColor=#B3B3B3;fontSize=20;" parent="v-nkVBjBGN799Da0-83n-1" vertex="1">
          <mxGeometry x="310" y="560" width="30" height="30" as="geometry" />
        </mxCell>
        <mxCell id="ZAa1UiF6k-vzWmJ9FmpC-2" value="&lt;b&gt;&lt;font style=&quot;font-size: 18px&quot;&gt;2c&lt;/font&gt;&lt;/b&gt;" style="ellipse;whiteSpace=wrap;html=1;aspect=fixed;strokeColor=#FFFFFF;fillColor=#B3B3B3;fontSize=20;" parent="v-nkVBjBGN799Da0-83n-1" vertex="1">
          <mxGeometry x="291.25" y="415" width="30" height="30" as="geometry" />
        </mxCell>
        <mxCell id="ZAa1UiF6k-vzWmJ9FmpC-4" value="&lt;b&gt;&lt;font style=&quot;font-size: 18px&quot;&gt;3c&lt;/font&gt;&lt;/b&gt;" style="ellipse;whiteSpace=wrap;html=1;aspect=fixed;strokeColor=#FFFFFF;fillColor=#B3B3B3;fontSize=20;" parent="v-nkVBjBGN799Da0-83n-1" vertex="1">
          <mxGeometry x="341.5" y="415" width="30" height="30" as="geometry" />
        </mxCell>
        <mxCell id="ZAa1UiF6k-vzWmJ9FmpC-5" value="&lt;b&gt;&lt;font style=&quot;font-size: 18px&quot;&gt;3e&lt;/font&gt;&lt;/b&gt;" style="ellipse;whiteSpace=wrap;html=1;aspect=fixed;strokeColor=#FFFFFF;fillColor=#B3B3B3;fontSize=20;" parent="v-nkVBjBGN799Da0-83n-1" vertex="1">
          <mxGeometry x="520" y="815" width="30" height="30" as="geometry" />
        </mxCell>
        <mxCell id="ZAa1UiF6k-vzWmJ9FmpC-6" value="&lt;b&gt;&lt;font style=&quot;font-size: 18px&quot;&gt;4a&lt;/font&gt;&lt;/b&gt;" style="ellipse;whiteSpace=wrap;html=1;aspect=fixed;strokeColor=#FFFFFF;fillColor=#B3B3B3;fontSize=20;" parent="v-nkVBjBGN799Da0-83n-1" vertex="1">
          <mxGeometry x="569" y="385" width="30" height="30" as="geometry" />
        </mxCell>
        <mxCell id="ZAa1UiF6k-vzWmJ9FmpC-7" value="&lt;b&gt;&lt;font style=&quot;font-size: 18px&quot;&gt;4b&lt;/font&gt;&lt;/b&gt;" style="ellipse;whiteSpace=wrap;html=1;aspect=fixed;strokeColor=#FFFFFF;fillColor=#B3B3B3;fontSize=20;" parent="v-nkVBjBGN799Da0-83n-1" vertex="1">
          <mxGeometry x="324" y="90" width="30" height="30" as="geometry" />
        </mxCell>
        <mxCell id="ZAa1UiF6k-vzWmJ9FmpC-8" value="&lt;b&gt;&lt;font style=&quot;font-size: 18px&quot;&gt;4c&lt;/font&gt;&lt;/b&gt;" style="ellipse;whiteSpace=wrap;html=1;aspect=fixed;strokeColor=#FFFFFF;fillColor=#B3B3B3;fontSize=20;" parent="v-nkVBjBGN799Da0-83n-1" vertex="1">
          <mxGeometry x="321.25" y="-50" width="30" height="30" as="geometry" />
        </mxCell>
      </root>
    </mxGraphModel>
  </diagram>
</mxfile>
